<?xml version="1.0" encoding="UTF-8"?> <svg xmlns="http://www.w3.org/2000/svg" id="Capa_1" data-name="Capa 1" viewBox="0 0 233 157"><defs><style>.cls-1{fill:#1d1d1b}</style></defs><path class="cls-1" transform="rotate(-.26 -10667.794 2792.113)" d="M136.55 169.31h1.46v10.67h-1.46z"></path><path class="cls-1" d="M198 206l-39.17-15.91-13.3-12.43c-5 1.91-33.24 12.7-34.86 13a1.39 1.39 0 0 1-.3 0c-2.55 0-21-5.81-23-6.47l-.34-.11-9.65-25.7-39.58 2.09-24.57-31.71L12 94.92l50.41-43.25h.27L188.84 49l.21.18 30.79 25.67.07.18 10.38 28L245 146l-.11.25c0 .09-4.14 9-8.44 17.84-8.91 18.23-10 18.23-10.76 18.23h-.11a15.5 15.5 0 0 0-1.84-.06c-4.58 0-15.17.44-16.37.49l-7.16 2.47 4.52 14.83zm-38.35-17.12l38.06 15.46 5.34-4.72-4.65-15.26 8.67-3h.11c.12 0 11.67-.48 16.54-.48h1.84c2.07-1.59 11.95-22.07 17.86-35l-14.53-42.5-10.29-27.69-30.29-25.26L63 53.08 13.48 95.54l1.19 32.72 23.8 30.8L78.35 157l9.78 26c8.13 2.57 20.53 6.29 22.26 6.29 1.21-.24 21.63-8 35.06-13.12l.44-.17z" transform="translate(-12 -49)"></path><path class="cls-1" d="M50.91 49.48L.7 46.94l.08-1.42 48.42 2.46-5.8-38.64 1.45-.21 6.06 40.35z"></path><path class="cls-1" d="M2.56 79.91l-1.21-.8 22.54-32.16 1.21.8L2.56 79.91zM82.83 28.49L50.24 3.94l.9-1.12 31.75 23.91 38-25 .81 1.17-38.87 25.59zM76.2 134.91l-1.27-.69 22.6-39.81 1.28.69-22.61 39.81zM20.52 83.28l-.45-1.35 65.82-20.52.45 1.36-65.82 20.51zM84.84 52.88l-34.86-3.44.15-1.42 34.86 3.45-.15 1.41z"></path><path class="cls-1" d="M65.28 109.12L39.62 76.83l1.15-.86 25.66 32.29-1.15.86z"></path><path class="cls-1" d="M26.06 111.56L14.13 61.85l1.43-.32 11.33 47.24L49.2 87.31l40.03-2.43.09 1.42-39.48 2.39-23.78 22.87z"></path><path class="cls-1" d="M146.27 178.34l-45.69-43.42L94.06 76l38.25-5 28.12-8.69 7.27 17 31.94-4.88-20.32 52.76-28.18 12.36zm-25-25.7l23.87 22.68 4.4-35.08zM102 134.26l18.51 17.6-.16-.35L148.94 139l-36.09-13.7.53-1.32 37.42 14.2 27.37-12 19.23-49.97-30.61 4.68-7.2-16.89-27 8.33h-.06l-36.87 4.89z" transform="translate(-12 -49)"></path><path class="cls-1" d="M147.61 141.11l-.69-1.25 85.06-44.51.69 1.25-85.06 44.51z"></path><path class="cls-1" d="M134.15 128.4l-.86-1.15L173 99.2l.21-.01 58.39-3.72.09 1.42-58.18 3.7-39.36 27.81z"></path><path class="cls-1" d="M172.55 100.09l-6.51-22.23 1.4-.39 6.52 22.23-1.41.39zM97.87 141.26l-11.43-26.57 1.35-.55 11.43 26.57-1.35.55zM111.27 136.76l-1.37-.49 8.42-22.35 1.37.49-8.42 22.35z"></path><path class="cls-1" d="M148.17 140.84l-1.23-.76 25.91-40.29 1.23.75-25.91 40.3zM166.05 148.83l-4.54-15.33 1.4-.39 3.91 13.21 9.49-7.9 4.3-15.8 13.93 8.84 4.28-18.65 13.92 16.57.64-24.13 13.32 2.31-.25 1.4-11.65-2.02-.7 26.3-14.51-17.27-4.08 17.79-14-8.88-3.91 14.33-11.55 9.62zM89.75 86.13l-.94-1.08 65.96-54.49.95 1.08-65.97 54.49z"></path><path class="cls-1" d="M196.33 99.3l-1.32-.61 20.65-42.92-43.72 8.31-.28-.34-22.54-27.5 1.14-.88 22.27 27.16 45.66-8.68-21.86 45.46zM112.3 66.9l-1.37-.48 17.47-46.73 1.37.49L112.3 66.9zM44.81 110.41l-.88-1.13L57.96 98.9l.88 1.13-14.03 10.38z"></path><path class="cls-1" d="M44.4 109.69l-6.02-10.57 1.28-.68 6.02 10.57-1.28.68zM186.83 25.59L176.57.39M186.16 25.85L175.89.65l1.36-.52 10.26 25.19-1.35.53zM111.26 67.28L83.64 52.29l36.11-29.97.86-21.09 27.33 12.11L168.51.12l.8 1.19-21.24 13.64L121.98 3.4l-.8 19.6-.24.2-34.75 28.85 25.78 13.99-.71 1.24zM207.22 26.27l-33.93 35.14M173.82 61.89l-1.06-.97 33.93-35.14 1.06.98-33.93 35.13zM207.4 27.21l-4.01 29.94"></path><path class="cls-1" d="M204.12 57.24l-1.45-.18 4.01-29.94 1.44.18-4 29.94zM225.46 77.15l-29.1 21.14M196.8 98.86l-.87-1.14 29.09-21.14.88 1.14-29.1 21.14z"></path></svg> 